<svg xmlns="http://www.w3.org/2000/svg" viewBox="0 0 640 360" role="img" aria-labelledby="title"><title id="title">社区散步活动</title><rect width="640" height="360" rx="28" fill="#e7f1e1"/><path d="M0 263c129-57 225-49 337-7 92 34 183 28 303-11v115H0Z" fill="#b9d69f"/><g fill="#84aa78"><circle cx="75" cy="137" r="53"/><circle cx="139" cy="118" r="70"/><circle cx="214" cy="144" r="45"/><circle cx="536" cy="116" r="64"/><circle cx="605" cy="145" r="45"/></g><g fill="#8c7459"><rect x="134" y="140" width="18" height="142" rx="8"/><rect x="545" y="156" width="15" height="130" rx="7"/></g><path d="M252 250c69-38 138-45 218-3" fill="none" stroke="#f7e2b9" stroke-width="31" stroke-linecap="round"/><g transform="translate(310 153)"><circle cx="25" cy="19" r="19" fill="#d7956d"/><path d="M9 51c13-12 38-12 51 0l9 78H0Z" fill="#de9a4e"/><path d="m12 62-39 54 16 10 42-47Zm44 3 34 43-15 13-39-36Z" fill="#f0bd91"/><path d="M15 128h18v52H14Zm31 0h18v52H46Z" fill="#6f8b75"/></g><g transform="translate(404 165)"><circle cx="21" cy="18" r="18" fill="#e0a67c"/><path d="M5 50c13-10 36-10 48 0l10 73H0Z" fill="#719a7b"/><path d="m9 62-30 53 15 8 35-46Zm38 4 38 38-13 13-43-32Z" fill="#efbf96"/><path d="M13 123h17v52H12Zm30 0h18v52H42Z" fill="#dd875c"/></g><circle cx="500" cy="53" r="24" fill="#f2c36c"/></svg>
